<svg width="203" height="202" viewBox="0 0 203 202" fill="none" xmlns="http://www.w3.org/2000/svg">
<path d="M101.437 2.5C156.092 2.5 200.374 46.5348 200.374 100.822C200.374 155.11 156.092 199.145 101.437 199.145C46.7811 199.144 2.50013 155.11 2.5 100.822C2.5 46.5349 46.781 2.50014 101.437 2.5Z" stroke="#714EE4" stroke-width="5"/>
<path d="M102.051 19.7134C147.543 19.7134 184.389 56.3196 184.389 101.437C184.389 146.554 147.542 183.16 102.051 183.16C56.5604 183.16 19.7137 146.554 19.7135 101.437C19.7135 56.3197 56.5603 19.7135 102.051 19.7134Z" stroke="#714EE4" stroke-width="5"/>
<path d="M102.052 36.9272C138.041 36.9275 167.176 65.8309 167.176 101.437C167.176 137.043 138.041 165.947 102.052 165.947C66.0632 165.947 36.927 137.043 36.927 101.437C36.927 65.8307 66.0632 36.9272 102.052 36.9272Z" stroke="#714EE4" stroke-width="5"/>
<path d="M102.052 56.5996C127.185 56.5997 147.504 76.7041 147.504 101.437C147.504 126.169 127.185 146.274 102.052 146.274C76.9189 146.274 56.5996 126.169 56.5996 101.437C56.5998 76.7041 76.9189 56.5996 102.052 56.5996Z" stroke="#714EE4" stroke-width="5"/>
<path d="M102.051 72.5835C118.372 72.5835 131.519 85.5474 131.519 101.437C131.519 117.326 118.372 130.29 102.051 130.29C85.7309 130.289 72.5838 117.326 72.5836 101.437C72.5836 85.5474 85.7308 72.5836 102.051 72.5835Z" stroke="#714EE4" stroke-width="5"/>
</svg>
