<svg viewBox="0 0 37 42" fill="none" xmlns="http://www.w3.org/2000/svg" xmlns:xlink="http://www.w3.org/1999/xlink" id="749a7130" x="0" y="0"><g id="Desktop/landing-page2" data-node-id="359:30" clip-path="url(#clip0_359_30)"><g id="navbar" data-node-id="359:31"><g id="lumray-logo 1" data-node-id="359:41"><path id="Vector" data-node-id="359:42" d="M8,5.5667c0,-2.7983 -1.7909,-5.0667 -4,-5.0667c-2.2091,0 -4,2.2684 -4,5.0667v27.8666c0,2.7983 1.7909,5.0667 4,5.0667c2.2091,0 4,-2.2684 4,-5.0667z" fill="#7F77DD"/><path id="Vector_2" data-node-id="359:43" d="M22,30.5h-18c-2.2091,0 -4,1.7909 -4,4c0,2.2091 1.7909,4 4,4h18c2.209,0 4,-1.7909 4,-4c0,-2.2091 -1.791,-4 -4,-4z" fill="#7F77DD"/><path id="Vector_3" data-node-id="359:44" d="M22,10.5c0,-2.2091 -1.791,-4 -4,-4c-2.209,0 -4,1.7909 -4,4v14c0,2.2091 1.791,4 4,4c2.209,0 4,-1.7909 4,-4z" fill="#AFA9EC"/><path id="Vector_4" data-node-id="359:45" d="M37,4.8158c0,-2.3836 -1.791,-4.3158 -4,-4.3158c-2.209,0 -4,1.9322 -4,4.3158v32.3684c0,2.3836 1.791,4.3158 4,4.3158c2.209,0 4,-1.9322 4,-4.3158z" fill="#534AB7"/></g></g></g><defs><clipPath id="clip0_359_30">
<rect width="1440" height="4265" fill="white" x="-92" y="-23.5"/>
</clipPath></defs></svg>