<svg width="130" height="52" viewBox="0 0 130 52" fill="none" xmlns="http://www.w3.org/2000/svg">
<path d="M8 11.0667C8 8.26842 6.20914 6 4 6C1.79086 6 0 8.26842 0 11.0667V38.9333C0 41.7316 1.79086 44 4 44C6.20914 44 8 41.7316 8 38.9333V11.0667Z" fill="#7F77DD"/>
<path d="M22 36H4C1.79086 36 0 37.7909 0 40C0 42.2091 1.79086 44 4 44H22C24.2091 44 26 42.2091 26 40C26 37.7909 24.2091 36 22 36Z" fill="#7F77DD"/>
<path d="M22 16C22 13.7909 20.2091 12 18 12C15.7909 12 14 13.7909 14 16V30C14 32.2091 15.7909 34 18 34C20.2091 34 22 32.2091 22 30V16Z" fill="#AFA9EC"/>
<path d="M37 10.3158C37 7.93224 35.2091 6 33 6C30.7909 6 29 7.93224 29 10.3158V42.6842C29 45.0678 30.7909 47 33 47C35.2091 47 37 45.0678 37 42.6842V10.3158Z" fill="#534AB7"/>
<path d="M52.0795 17.5455V35H48.4489V17.5455H52.0795ZM63.3828 29.4261V21.9091H67.0135V35H63.5277V32.6222H63.3913C63.0959 33.3892 62.6044 34.0057 61.9169 34.4716C61.2351 34.9375 60.4027 35.1705 59.4197 35.1705C58.5447 35.1705 57.7749 34.9716 57.1101 34.5739C56.4453 34.1761 55.9254 33.6108 55.5504 32.8778C55.1811 32.1449 54.9936 31.267 54.9879 30.2443V21.9091H58.6186V29.5966C58.6243 30.3693 58.8317 30.9801 59.2408 31.429C59.6499 31.8778 60.1982 32.1023 60.8857 32.1023C61.3232 32.1023 61.7322 32.0028 62.1129 31.804C62.4936 31.5994 62.8004 31.2983 63.0334 30.9006C63.272 30.5028 63.3885 30.0114 63.3828 29.4261ZM69.9176 35V21.9091H73.3778V24.2188H73.5312C73.804 23.4517 74.2585 22.8466 74.8949 22.4034C75.5312 21.9602 76.2926 21.7386 77.179 21.7386C78.0767 21.7386 78.8409 21.9631 79.4716 22.4119C80.1023 22.8551 80.5227 23.4574 80.733 24.2188H80.8693C81.1364 23.4688 81.6193 22.8693 82.3182 22.4205C83.0227 21.9659 83.8551 21.7386 84.8153 21.7386C86.0369 21.7386 87.0284 22.1278 87.7898 22.9062C88.5568 23.679 88.9403 24.7756 88.9403 26.196V35H85.3182V26.9119C85.3182 26.1847 85.125 25.6392 84.7386 25.2756C84.3523 24.9119 83.8693 24.7301 83.2898 24.7301C82.6307 24.7301 82.1165 24.9403 81.7472 25.3608C81.3778 25.7756 81.1932 26.3239 81.1932 27.0057V35H77.6733V26.8352C77.6733 26.1932 77.4886 25.6818 77.1193 25.3011C76.7557 24.9205 76.2756 24.7301 75.679 24.7301C75.2756 24.7301 74.9119 24.8324 74.5881 25.0369C74.2699 25.2358 74.017 25.517 73.8295 25.8807C73.642 26.2386 73.5483 26.6591 73.5483 27.142V35H69.9176ZM91.8082 35V21.9091H95.3281V24.1932H95.4645C95.7031 23.3807 96.1037 22.767 96.6662 22.3523C97.2287 21.9318 97.8764 21.7216 98.6094 21.7216C98.7912 21.7216 98.9872 21.733 99.1974 21.7557C99.4077 21.7784 99.5923 21.8097 99.7514 21.8494V25.071C99.581 25.0199 99.3452 24.9744 99.044 24.9347C98.7429 24.8949 98.4673 24.875 98.2173 24.875C97.6832 24.875 97.206 24.9915 96.7855 25.2244C96.3707 25.4517 96.0412 25.7699 95.7969 26.179C95.5582 26.5881 95.4389 27.0597 95.4389 27.5938V35H91.8082ZM104.987 35.2472C104.151 35.2472 103.407 35.1023 102.754 34.8125C102.1 34.517 101.583 34.0824 101.202 33.5085C100.827 32.929 100.64 32.2074 100.64 31.3438C100.64 30.6165 100.773 30.0057 101.04 29.5114C101.308 29.017 101.671 28.6193 102.131 28.3182C102.592 28.017 103.114 27.7898 103.7 27.6364C104.29 27.483 104.91 27.375 105.558 27.3125C106.319 27.233 106.933 27.1591 107.398 27.0909C107.864 27.017 108.202 26.9091 108.413 26.767C108.623 26.625 108.728 26.4148 108.728 26.1364V26.0852C108.728 25.5455 108.558 25.1278 108.217 24.8324C107.881 24.5369 107.404 24.3892 106.785 24.3892C106.131 24.3892 105.612 24.5341 105.225 24.8239C104.839 25.108 104.583 25.4659 104.458 25.8977L101.1 25.625C101.271 24.8295 101.606 24.142 102.106 23.5625C102.606 22.9773 103.251 22.5284 104.04 22.2159C104.836 21.8977 105.756 21.7386 106.802 21.7386C107.529 21.7386 108.225 21.8239 108.89 21.9943C109.56 22.1648 110.154 22.429 110.671 22.7869C111.194 23.1449 111.606 23.6051 111.907 24.1676C112.208 24.7244 112.359 25.392 112.359 26.1705V35H108.915V33.1847H108.813C108.603 33.5938 108.322 33.9545 107.969 34.267C107.617 34.5739 107.194 34.8153 106.7 34.9915C106.205 35.1619 105.634 35.2472 104.987 35.2472ZM106.026 32.7415C106.56 32.7415 107.032 32.6364 107.441 32.4261C107.85 32.2102 108.171 31.9205 108.404 31.5568C108.637 31.1932 108.754 30.7812 108.754 30.321V28.9318C108.64 29.0057 108.484 29.0739 108.285 29.1364C108.092 29.1932 107.873 29.2472 107.629 29.2983C107.384 29.3437 107.14 29.3864 106.896 29.4261C106.651 29.4602 106.43 29.4915 106.231 29.5199C105.805 29.5824 105.433 29.6818 105.114 29.8182C104.796 29.9545 104.549 30.1392 104.373 30.3722C104.197 30.5994 104.109 30.8835 104.109 31.2244C104.109 31.7188 104.288 32.0966 104.646 32.358C105.009 32.6136 105.469 32.7415 106.026 32.7415ZM116.948 39.9091C116.488 39.9091 116.056 39.8722 115.653 39.7983C115.255 39.7301 114.925 39.642 114.664 39.5341L115.482 36.8239C115.908 36.9545 116.292 37.0256 116.633 37.0369C116.979 37.0483 117.278 36.9688 117.528 36.7983C117.783 36.6278 117.991 36.3381 118.15 35.929L118.363 35.375L113.667 21.9091H117.485L120.195 31.5227H120.332L123.067 21.9091H126.911L121.823 36.4148C121.579 37.1193 121.246 37.733 120.826 38.2557C120.411 38.7841 119.886 39.1903 119.249 39.4744C118.613 39.7642 117.846 39.9091 116.948 39.9091Z" fill="white"/>
</svg>
