<svg width="550" height="480" viewBox="0 0 550 480" fill="none" xmlns="http://www.w3.org/2000/svg">
<rect width="525.595" height="479.073" rx="12" transform="matrix(1 0 -0.0495471 0.998772 23.7826 0)" fill="#383A47"/>
<path d="M58.3474 56.2028L61.3299 47.2841H62.5603L61.6764 50.7515L58.481 60.0652H57.2593L58.3474 56.2028ZM56.1619 47.2841L57.7497 56.0272L58.1558 60.0652H56.9429L54.4744 47.2841H56.1619ZM65.4142 56.0185L67.825 47.2841H69.5213L65.7935 60.0652H64.5806L65.4142 56.0185ZM62.7449 47.2841L64.7722 56.2028L65.4771 60.0652H64.2554L62.0807 50.7515L61.532 47.2841H62.7449ZM72.8918 52.0595L72.4946 60.0652H70.8686L71.3398 50.5672H72.9218L72.8918 52.0595ZM75.9391 50.5145L75.8554 52.0244C75.7221 51.9951 75.5941 51.9775 75.4713 51.9717C75.3547 51.96 75.2202 51.9541 75.0679 51.9541C74.6929 51.9541 74.3589 52.0127 74.066 52.1297C73.7731 52.2467 73.5218 52.4106 73.3121 52.6213C73.1025 52.832 72.9318 53.0836 72.8001 53.3762C72.6745 53.663 72.5856 53.979 72.5333 54.3243L72.0632 54.5876C72.0917 54.0141 72.174 53.4757 72.3103 52.9724C72.4525 52.4691 72.6533 52.0244 72.9127 51.6381C73.1723 51.246 73.4921 50.9417 73.872 50.7252C74.258 50.5028 74.7089 50.3916 75.2245 50.3916C75.3417 50.3916 75.4757 50.4062 75.6266 50.4355C75.7778 50.4589 75.882 50.4852 75.9391 50.5145ZM79.746 50.5672L79.2748 60.0652H77.6401L78.1113 50.5672H79.746ZM78.1132 48.0478C78.1263 47.7845 78.2164 47.5621 78.3836 47.3807C78.5567 47.1992 78.8014 47.1085 79.1178 47.1085C79.4283 47.1085 79.6611 47.1992 79.8162 47.3807C79.9771 47.5621 80.0511 47.7845 80.038 48.0478C80.0255 48.2994 79.9298 48.516 79.7509 48.6974C79.5781 48.873 79.3365 48.9607 79.0259 48.9607C78.7095 48.9607 78.4736 48.873 78.3183 48.6974C78.1691 48.516 78.1007 48.2994 78.1132 48.0478ZM86.8778 50.5672L86.816 51.8137H81.6744L81.7362 50.5672H86.8778ZM83.591 48.2585H85.217L84.748 57.7127C84.732 58.0345 84.7697 58.2774 84.8612 58.4413C84.9527 58.6051 85.0762 58.7134 85.2318 58.7661C85.3874 58.8187 85.556 58.8451 85.7377 58.8451C85.8724 58.8451 86.0137 58.8334 86.1613 58.81C86.3151 58.7807 86.4305 58.7573 86.5076 58.7397L86.4506 60.0652C86.3196 60.1062 86.1478 60.1443 85.9352 60.1794C85.728 60.2203 85.478 60.2408 85.185 60.2408C84.7866 60.2408 84.4243 60.1618 84.0982 60.0038C83.772 59.8458 83.5185 59.5824 83.3376 59.2138C83.1628 58.8392 83.0911 58.3359 83.1224 57.7039L83.591 48.2585ZM92.7914 60.2408C92.1293 60.2408 91.5343 60.1296 91.0062 59.9072C90.4844 59.679 90.0402 59.3601 89.6738 58.9504C89.3133 58.5408 89.0444 58.055 88.8672 57.4932C88.69 56.9314 88.6179 56.3169 88.651 55.6498L88.6693 55.2811C88.7076 54.5086 88.856 53.821 89.1144 53.2182C89.3731 52.6096 89.7092 52.0946 90.1227 51.6732C90.5362 51.2519 90.9973 50.9329 91.5061 50.7164C92.0149 50.4999 92.5359 50.3916 93.0691 50.3916C93.7488 50.3916 94.3289 50.5086 94.8095 50.7427C95.2959 50.9768 95.6869 51.3045 95.9824 51.7259C96.2782 52.1414 96.4882 52.633 96.6124 53.2006C96.7368 53.7625 96.7825 54.3769 96.7494 55.0441L96.7133 55.7727H89.6117L89.6775 54.4472H95.1531L95.1592 54.3243C95.1566 53.9029 95.0891 53.4933 94.9565 53.0953C94.8297 52.6974 94.6116 52.3696 94.3021 52.1121C93.9926 51.8546 93.5596 51.7259 93.0029 51.7259C92.6338 51.7259 92.29 51.8049 91.9716 51.9629C91.6535 52.1151 91.3756 52.3433 91.1379 52.6476C90.9001 52.9519 90.7088 53.3235 90.564 53.7625C90.4192 54.2014 90.3325 54.7076 90.3041 55.2811L90.2858 55.6498C90.2634 56.1004 90.3039 56.5247 90.4072 56.9226C90.5167 57.3147 90.6841 57.66 90.9096 57.9585C91.1408 58.2569 91.4251 58.491 91.7624 58.6607C92.1056 58.8304 92.4998 58.9153 92.9451 58.9153C93.5193 58.9153 94.0114 58.7983 94.4215 58.5642C94.8315 58.3301 95.1957 58.017 95.514 57.6249L96.4596 58.4062C96.2391 58.7163 95.9637 59.0119 95.6334 59.2928C95.3031 59.5737 94.9021 59.8019 94.4305 59.9775C93.9647 60.153 93.4184 60.2408 92.7914 60.2408ZM106.435 58.3798L109.266 50.5672H110.339L110.051 52.1209L107.169 60.0652H106.123L106.435 58.3798ZM105.179 50.5672L106.871 58.4676L106.941 60.0652H105.842L103.553 50.5672H105.179ZM112.288 58.4062L114.663 50.5672H116.28L113.049 60.0652H111.959L112.288 58.4062ZM110.576 50.5672L112.586 58.2481L112.768 60.0652H111.731L109.568 52.1034L109.433 50.5672H110.576ZM120.314 46.5818L119.645 60.0652H118.019L118.688 46.5818H120.314ZM119.511 54.9563L118.836 54.93C118.874 54.2804 119.001 53.6805 119.215 53.1304C119.43 52.5745 119.718 52.0917 120.078 51.682C120.438 51.2724 120.858 50.9563 121.338 50.734C121.824 50.5057 122.354 50.3916 122.928 50.3916C123.397 50.3916 123.816 50.456 124.184 50.5847C124.553 50.7076 124.863 50.9066 125.113 51.1816C125.369 51.4567 125.556 51.8137 125.675 52.2526C125.794 52.6857 125.838 53.2153 125.807 53.8415L125.498 60.0652H123.864L124.173 53.8239C124.198 53.3265 124.144 52.9285 124.013 52.6301C123.881 52.3257 123.678 52.1063 123.404 51.9717C123.129 51.8312 122.787 51.761 122.377 51.761C121.973 51.761 121.599 51.8459 121.257 52.0156C120.92 52.1853 120.625 52.4194 120.37 52.7178C120.12 53.0163 119.919 53.3587 119.765 53.7449C119.617 54.1253 119.533 54.5291 119.511 54.9563ZM134.161 58.4413L134.403 53.5518C134.422 53.1772 134.362 52.8524 134.223 52.5774C134.091 52.2965 133.879 52.08 133.587 51.9278C133.296 51.7756 132.931 51.6996 132.491 51.6996C132.081 51.6996 131.717 51.7698 131.4 51.9102C131.088 52.0507 130.839 52.235 130.652 52.4633C130.47 52.6915 130.373 52.9373 130.36 53.2006H128.734C128.751 52.8612 128.856 52.5247 129.048 52.1911C129.24 51.8576 129.507 51.5562 129.849 51.287C130.196 51.0119 130.606 50.7954 131.076 50.6374C131.553 50.4735 132.079 50.3916 132.653 50.3916C133.344 50.3916 133.948 50.5086 134.464 50.7427C134.985 50.9768 135.384 51.3309 135.659 51.8049C135.94 52.2731 136.064 52.8612 136.028 53.5693L135.809 57.9936C135.793 58.3096 135.803 58.6461 135.838 59.0031C135.879 59.3601 135.949 59.6673 136.047 59.9248L136.04 60.0652H134.344C134.271 59.878 134.219 59.6293 134.188 59.3191C134.156 59.0031 134.147 58.7105 134.161 58.4413ZM134.647 54.3067L134.608 55.4479H132.965C132.502 55.4479 132.087 55.4859 131.72 55.562C131.353 55.6322 131.043 55.7405 130.79 55.8868C130.536 56.0331 130.34 56.2174 130.2 56.4398C130.06 56.6564 129.983 56.9109 129.968 57.2035C129.954 57.502 130.007 57.7741 130.13 58.0199C130.253 58.2657 130.445 58.4618 130.707 58.6081C130.976 58.7485 131.309 58.8187 131.708 58.8187C132.206 58.8187 132.65 58.7134 133.042 58.5027C133.433 58.292 133.747 58.0345 133.985 57.7302C134.229 57.4259 134.366 57.1304 134.398 56.8436L135.054 57.6249C135.001 57.8707 134.876 58.1428 134.679 58.4413C134.483 58.7397 134.226 59.0265 133.907 59.3015C133.595 59.5707 133.226 59.796 132.801 59.9775C132.383 60.153 131.915 60.2408 131.4 60.2408C130.755 60.2408 130.196 60.115 129.722 59.8633C129.254 59.6117 128.896 59.2752 128.647 58.8538C128.405 58.4266 128.297 57.9497 128.323 57.423C128.348 56.9139 128.47 56.4662 128.688 56.0799C128.907 55.6878 129.21 55.363 129.598 55.1055C129.986 54.8422 130.447 54.6432 130.981 54.5086C131.515 54.374 132.107 54.3067 132.758 54.3067H134.647ZM143.256 50.5672L143.195 51.8137H138.053L138.115 50.5672H143.256ZM139.97 48.2585H141.596L141.127 57.7127C141.111 58.0345 141.148 58.2774 141.24 58.4413C141.331 58.6051 141.455 58.7134 141.611 58.7661C141.766 58.8187 141.935 58.8451 142.116 58.8451C142.251 58.8451 142.392 58.8334 142.54 58.81C142.694 58.7807 142.809 58.7573 142.886 58.7397L142.829 60.0652C142.698 60.1062 142.527 60.1443 142.314 60.1794C142.107 60.2203 141.857 60.2408 141.564 60.2408C141.165 60.2408 140.803 60.1618 140.477 60.0038C140.151 59.8458 139.897 59.5824 139.716 59.2138C139.541 58.8392 139.47 58.3359 139.501 57.7039L139.97 48.2585ZM152.958 59.0821L156.026 50.5672H157.766L153.408 61.5312C153.308 61.7653 153.179 62.0169 153.019 62.2861C152.865 62.5612 152.67 62.8216 152.435 63.0674C152.2 63.3132 151.921 63.5122 151.597 63.6643C151.279 63.8223 150.903 63.9014 150.469 63.9014C150.34 63.9014 150.177 63.8838 149.979 63.8487C149.782 63.8136 149.643 63.7843 149.562 63.7609L149.618 62.4442C149.665 62.45 149.738 62.4559 149.837 62.4617C149.942 62.4734 150.015 62.4793 150.056 62.4793C150.425 62.4793 150.741 62.4295 151.004 62.33C151.266 62.2364 151.491 62.0755 151.678 61.8472C151.871 61.6249 152.041 61.3176 152.19 60.9255L152.958 59.0821ZM151.438 50.5672L153.542 57.9409L153.879 59.6527L152.68 60.2496L149.663 50.5672H151.438ZM158.962 55.4215L158.972 55.2196C159.006 54.5349 159.137 53.9 159.365 53.3148C159.594 52.7237 159.906 52.2116 160.303 51.7786C160.7 51.3397 161.17 51.0002 161.716 50.7603C162.261 50.5145 162.865 50.3916 163.527 50.3916C164.195 50.3916 164.789 50.5145 165.31 50.7603C165.837 51.0002 166.278 51.3397 166.631 51.7786C166.99 52.2116 167.255 52.7237 167.425 53.3148C167.595 53.9 167.663 54.5349 167.629 55.2196L167.619 55.4215C167.585 56.1062 167.454 56.7412 167.226 57.3264C166.998 57.9116 166.682 58.4237 166.279 58.8626C165.883 59.2957 165.412 59.6351 164.867 59.8809C164.327 60.1208 163.724 60.2408 163.056 60.2408C162.388 60.2408 161.793 60.1208 161.272 59.8809C160.751 59.6351 160.311 59.2957 159.951 58.8626C159.598 58.4237 159.336 57.9116 159.166 57.3264C158.996 56.7412 158.928 56.1062 158.962 55.4215ZM160.598 55.2196L160.588 55.4215C160.564 55.8956 160.598 56.3433 160.688 56.7646C160.779 57.1801 160.928 57.5488 161.134 57.8707C161.347 58.1926 161.618 58.4471 161.949 58.6344C162.28 58.8158 162.671 58.9065 163.122 58.9065C163.567 58.9065 163.961 58.8158 164.304 58.6344C164.654 58.4471 164.947 58.1926 165.186 57.8707C165.425 57.5488 165.61 57.1801 165.742 56.7646C165.88 56.3433 165.961 55.8956 165.984 55.4215L165.994 55.2196C166.018 54.7515 165.981 54.3096 165.884 53.8941C165.794 53.4728 165.642 53.1012 165.43 52.7793C165.223 52.4516 164.955 52.1941 164.624 52.0068C164.3 51.8195 163.912 51.7259 163.461 51.7259C163.015 51.7259 162.618 51.8195 162.269 52.0068C161.926 52.1941 161.632 52.4516 161.387 52.7793C161.148 53.1012 160.963 53.4728 160.831 53.8941C160.699 54.3096 160.621 54.7515 160.598 55.2196ZM175.895 57.8707L176.257 50.5672H177.892L177.421 60.0652H175.865L175.895 57.8707ZM176.302 55.8692L176.98 55.8517C176.948 56.4837 176.852 57.0689 176.69 57.6073C176.535 58.1399 176.301 58.6022 175.989 58.9943C175.676 59.3864 175.277 59.6936 174.792 59.916C174.306 60.1325 173.724 60.2408 173.044 60.2408C172.581 60.2408 172.16 60.1735 171.78 60.0389C171.405 59.9043 171.088 59.6966 170.826 59.4157C170.565 59.1348 170.369 58.769 170.239 58.3184C170.115 57.8678 170.068 57.3264 170.1 56.6944L170.404 50.5672H172.03L171.725 56.7119C171.704 57.1392 171.733 57.4932 171.813 57.7741C171.899 58.0492 172.02 58.2686 172.176 58.4325C172.338 58.5905 172.52 58.7017 172.722 58.7661C172.929 58.8304 173.145 58.8626 173.367 58.8626C174.059 58.8626 174.613 58.731 175.03 58.4676C175.448 58.1984 175.756 57.8385 175.954 57.3879C176.158 56.9314 176.274 56.4252 176.302 55.8692ZM187.936 58.3798L190.767 50.5672H191.839L191.551 52.1209L188.67 60.0652H187.624L187.936 58.3798ZM186.68 50.5672L188.371 58.4676L188.441 60.0652H187.343L185.054 50.5672H186.68ZM193.788 58.4062L196.163 50.5672H197.781L194.55 60.0652H193.46L193.788 58.4062ZM192.077 50.5672L194.086 58.2481L194.268 60.0652H193.231L191.069 52.1034L190.934 50.5672H192.077ZM199.319 55.4215L199.329 55.2196C199.363 54.5349 199.494 53.9 199.722 53.3148C199.951 52.7237 200.264 52.2116 200.66 51.7786C201.057 51.3397 201.528 51.0002 202.073 50.7603C202.618 50.5145 203.222 50.3916 203.884 50.3916C204.552 50.3916 205.147 50.5145 205.668 50.7603C206.195 51.0002 206.635 51.3397 206.988 51.7786C207.347 52.2116 207.612 52.7237 207.782 53.3148C207.952 53.9 208.02 54.5349 207.986 55.2196L207.976 55.4215C207.942 56.1062 207.811 56.7412 207.583 57.3264C207.355 57.9116 207.039 58.4237 206.637 58.8626C206.24 59.2957 205.769 59.6351 205.224 59.8809C204.685 60.1208 204.081 60.2408 203.413 60.2408C202.745 60.2408 202.15 60.1208 201.629 59.8809C201.108 59.6351 200.668 59.2957 200.309 58.8626C199.955 58.4237 199.694 57.9116 199.523 57.3264C199.353 56.7412 199.285 56.1062 199.319 55.4215ZM200.955 55.2196L200.945 55.4215C200.922 55.8956 200.955 56.3433 201.045 56.7646C201.136 57.1801 201.285 57.5488 201.492 57.8707C201.704 58.1926 201.976 58.4471 202.306 58.6344C202.637 58.8158 203.028 58.9065 203.479 58.9065C203.925 58.9065 204.319 58.8158 204.662 58.6344C205.011 58.4471 205.305 58.1926 205.543 57.8707C205.782 57.5488 205.967 57.1801 206.099 56.7646C206.237 56.3433 206.318 55.8956 206.342 55.4215L206.352 55.2196C206.375 54.7515 206.338 54.3096 206.242 53.8941C206.151 53.4728 206 53.1012 205.787 52.7793C205.581 52.4516 205.312 52.1941 204.982 52.0068C204.657 51.8195 204.269 51.7259 203.818 51.7259C203.373 51.7259 202.975 51.8195 202.626 52.0068C202.283 52.1941 201.989 52.4516 201.744 52.7793C201.506 53.1012 201.32 53.4728 201.188 53.8941C201.056 54.3096 200.978 54.7515 200.955 55.2196ZM216.252 57.8707L216.615 50.5672H218.249L217.778 60.0652H216.223L216.252 57.8707ZM216.659 55.8692L217.337 55.8517C217.305 56.4837 217.209 57.0689 217.048 57.6073C216.892 58.1399 216.658 58.6022 216.346 58.9943C216.034 59.3864 215.634 59.6936 215.149 59.916C214.664 60.1325 214.081 60.2408 213.401 60.2408C212.938 60.2408 212.517 60.1735 212.137 60.0389C211.763 59.9043 211.445 59.6966 211.183 59.4157C210.922 59.1348 210.726 58.769 210.596 58.3184C210.472 57.8678 210.426 57.3264 210.457 56.6944L210.761 50.5672H212.387L212.082 56.7119C212.061 57.1392 212.09 57.4932 212.17 57.7741C212.256 58.0492 212.377 58.2686 212.533 58.4325C212.695 58.5905 212.877 58.7017 213.079 58.7661C213.287 58.8304 213.502 58.8626 213.725 58.8626C214.416 58.8626 214.97 58.731 215.388 58.4676C215.805 58.1984 216.113 57.8385 216.311 57.3879C216.516 56.9314 216.632 56.4252 216.659 55.8692ZM223.232 46.5818L222.563 60.0652H220.929L221.597 46.5818H223.232ZM231.799 58.2218L232.377 46.5818H234.011L233.343 60.0652H231.848L231.799 58.2218ZM225.54 55.4215L225.549 55.2372C225.585 54.5115 225.705 53.8532 225.91 53.2621C226.122 52.6652 226.402 52.1531 226.751 51.7259C227.107 51.2987 227.518 50.971 227.987 50.7427C228.461 50.5086 228.983 50.3916 229.551 50.3916C230.149 50.3916 230.665 50.4969 231.1 50.7076C231.541 50.9124 231.907 51.2138 232.197 51.6118C232.494 52.0039 232.72 52.4779 232.874 53.0339C233.028 53.5898 233.123 54.2189 233.158 54.9212L233.118 55.7288C233.019 56.4252 232.862 57.0514 232.647 57.6073C232.438 58.1633 232.165 58.6373 231.829 59.0294C231.499 59.4215 231.104 59.7229 230.642 59.9336C230.181 60.1384 229.648 60.2408 229.045 60.2408C228.488 60.2408 227.984 60.1208 227.533 59.8809C227.088 59.641 226.709 59.3045 226.397 58.8714C226.09 58.4383 225.861 57.9292 225.708 57.344C225.562 56.7529 225.505 56.1121 225.54 55.4215ZM227.184 55.2372L227.174 55.4215C227.151 55.8956 227.176 56.3403 227.249 56.7558C227.328 57.1713 227.462 57.5371 227.651 57.8531C227.841 58.1691 228.089 58.4179 228.397 58.5993C228.704 58.7748 229.078 58.8626 229.517 58.8626C230.056 58.8626 230.505 58.7485 230.862 58.5203C231.224 58.292 231.521 57.9907 231.75 57.6161C231.98 57.2416 232.164 56.8348 232.303 56.3959L232.408 54.2804C232.353 53.9585 232.266 53.6483 232.146 53.3499C232.033 53.0456 231.876 52.7764 231.677 52.5423C231.483 52.3023 231.238 52.1121 230.94 51.9717C230.648 51.8312 230.297 51.761 229.887 51.761C229.442 51.761 229.054 51.8546 228.722 52.0419C228.397 52.2233 228.123 52.475 227.902 52.7968C227.682 53.1129 227.511 53.4815 227.39 53.9029C227.276 54.3184 227.207 54.7632 227.184 55.2372ZM243.854 46.5818L243.185 60.0652H241.55L242.219 46.5818H243.854ZM248.573 50.5672L248.102 60.0652H246.467L246.939 50.5672H248.573ZM246.941 48.0478C246.954 47.7845 247.044 47.5621 247.211 47.3807C247.384 47.1992 247.629 47.1085 247.945 47.1085C248.256 47.1085 248.488 47.1992 248.644 47.3807C248.804 47.5621 248.878 47.7845 248.865 48.0478C248.853 48.2994 248.757 48.516 248.578 48.6974C248.405 48.873 248.164 48.9607 247.853 48.9607C247.537 48.9607 247.301 48.873 247.146 48.6974C246.996 48.516 246.928 48.2994 246.941 48.0478ZM253.556 46.5818L252.887 60.0652H251.253L251.921 46.5818H253.556ZM259.168 50.5672L254.8 55.0002L252.36 57.4054L252.314 55.6761L254.074 53.6922L257.182 50.5672H259.168ZM257.212 60.0652L254.044 55.5357L254.959 54.0872L259.128 60.0652H257.212ZM264.677 60.2408C264.015 60.2408 263.42 60.1296 262.892 59.9072C262.37 59.679 261.926 59.3601 261.56 58.9504C261.199 58.5408 260.93 58.055 260.753 57.4932C260.576 56.9314 260.504 56.3169 260.537 55.6498L260.555 55.2811C260.594 54.5086 260.742 53.821 261 53.2182C261.259 52.6096 261.595 52.0946 262.009 51.6732C262.422 51.2519 262.883 50.9329 263.392 50.7164C263.901 50.4999 264.422 50.3916 264.955 50.3916C265.635 50.3916 266.215 50.5086 266.695 50.7427C267.182 50.9768 267.573 51.3045 267.868 51.7259C268.164 52.1414 268.374 52.633 268.498 53.2006C268.623 53.7625 268.668 54.3769 268.635 55.0441L268.599 55.7727H261.498L261.563 54.4472H267.039L267.045 54.3243C267.043 53.9029 266.975 53.4933 266.842 53.0953C266.716 52.6974 266.498 52.3696 266.188 52.1121C265.879 51.8546 265.446 51.7259 264.889 51.7259C264.52 51.7259 264.176 51.8049 263.858 51.9629C263.539 52.1151 263.262 52.3433 263.024 52.6476C262.786 52.9519 262.595 53.3235 262.45 53.7625C262.305 54.2014 262.218 54.7076 262.19 55.2811L262.172 55.6498C262.149 56.1004 262.19 56.5247 262.293 56.9226C262.403 57.3147 262.57 57.66 262.795 57.9585C263.027 58.2569 263.311 58.491 263.648 58.6607C263.991 58.8304 264.386 58.9153 264.831 58.9153C265.405 58.9153 265.897 58.7983 266.307 58.5642C266.717 58.3301 267.082 58.017 267.4 57.6249L268.346 58.4062C268.125 58.7163 267.85 59.0119 267.519 59.2928C267.189 59.5737 266.788 59.8019 266.316 59.9775C265.851 60.153 265.304 60.2408 264.677 60.2408ZM280.282 50.5672L280.22 51.8137H275.079L275.141 50.5672H280.282ZM276.995 48.2585H278.621L278.152 57.7127C278.136 58.0345 278.174 58.2774 278.266 58.4413C278.357 58.6051 278.481 58.7134 278.636 58.7661C278.792 58.8187 278.96 58.8451 279.142 58.8451C279.277 58.8451 279.418 58.8334 279.566 58.81C279.719 58.7807 279.835 58.7573 279.912 58.7397L279.855 60.0652C279.724 60.1062 279.552 60.1443 279.34 60.1794C279.132 60.2203 278.882 60.2408 278.589 60.2408C278.191 60.2408 277.829 60.1618 277.503 60.0038C277.176 59.8458 276.923 59.5824 276.742 59.2138C276.567 58.8392 276.495 58.3359 276.527 57.7039L276.995 48.2585ZM281.882 55.4215L281.892 55.2196C281.926 54.5349 282.057 53.9 282.286 53.3148C282.514 52.7237 282.827 52.2116 283.223 51.7786C283.62 51.3397 284.091 51.0002 284.636 50.7603C285.181 50.5145 285.785 50.3916 286.447 50.3916C287.115 50.3916 287.71 50.5145 288.231 50.7603C288.758 51.0002 289.198 51.3397 289.551 51.7786C289.911 52.2116 290.175 52.7237 290.345 53.3148C290.515 53.9 290.583 54.5349 290.549 55.2196L290.539 55.4215C290.505 56.1062 290.374 56.7412 290.146 57.3264C289.918 57.9116 289.602 58.4237 289.2 58.8626C288.803 59.2957 288.332 59.6351 287.787 59.8809C287.248 60.1208 286.644 60.2408 285.976 60.2408C285.308 60.2408 284.713 60.1208 284.192 59.8809C283.671 59.6351 283.231 59.2957 282.872 58.8626C282.518 58.4237 282.257 57.9116 282.086 57.3264C281.916 56.7412 281.848 56.1062 281.882 55.4215ZM283.518 55.2196L283.508 55.4215C283.485 55.8956 283.518 56.3433 283.609 56.7646C283.699 57.1801 283.848 57.5488 284.055 57.8707C284.267 58.1926 284.539 58.4471 284.869 58.6344C285.2 58.8158 285.591 58.9065 286.042 58.9065C286.488 58.9065 286.882 58.8158 287.225 58.6344C287.574 58.4471 287.868 58.1926 288.106 57.8707C288.345 57.5488 288.53 57.1801 288.662 56.7646C288.8 56.3433 288.881 55.8956 288.905 55.4215L288.915 55.2196C288.938 54.7515 288.901 54.3096 288.805 53.8941C288.714 53.4728 288.563 53.1012 288.35 52.7793C288.144 52.4516 287.875 52.1941 287.545 52.0068C287.22 51.8195 286.832 51.7259 286.381 51.7259C285.936 51.7259 285.538 51.8195 285.189 52.0068C284.846 52.1941 284.552 52.4516 284.307 52.7793C284.069 53.1012 283.883 53.4728 283.751 53.8941C283.619 54.3096 283.541 54.7515 283.518 55.2196ZM303.555 57.5459C303.567 57.3118 303.525 57.0953 303.429 56.8963C303.34 56.6915 303.141 56.5071 302.832 56.3433C302.53 56.1735 302.069 56.0272 301.448 55.9043C300.926 55.7932 300.455 55.6615 300.035 55.5093C299.621 55.3572 299.269 55.1728 298.981 54.9563C298.699 54.7398 298.486 54.4852 298.342 54.1926C298.199 53.9 298.137 53.5576 298.156 53.1655C298.175 52.791 298.274 52.4369 298.455 52.1034C298.641 51.7698 298.893 51.4743 299.211 51.2168C299.534 50.9593 299.916 50.7574 300.357 50.6111C300.798 50.4647 301.285 50.3916 301.818 50.3916C302.58 50.3916 303.224 50.5262 303.749 50.7954C304.275 51.0646 304.67 51.4245 304.935 51.8751C305.2 52.3199 305.319 52.8144 305.292 53.3587H303.666C303.679 53.0953 303.613 52.8407 303.467 52.5949C303.327 52.3433 303.112 52.1355 302.821 51.9717C302.536 51.8078 302.18 51.7259 301.752 51.7259C301.301 51.7259 300.931 51.7961 300.643 51.9366C300.361 52.0712 300.15 52.2438 300.011 52.4545C299.877 52.6652 299.805 52.8876 299.793 53.1216C299.784 53.2972 299.806 53.4552 299.857 53.5957C299.915 53.7303 300.02 53.8561 300.173 53.9731C300.325 54.0843 300.543 54.1897 300.825 54.2891C301.107 54.3886 301.468 54.4881 301.909 54.5876C302.679 54.7632 303.311 54.9739 303.802 55.2196C304.294 55.4654 304.654 55.7668 304.882 56.1238C305.111 56.4808 305.212 56.9139 305.187 57.423C305.166 57.8385 305.06 58.2189 304.867 58.5642C304.68 58.9094 304.416 59.2079 304.075 59.4595C303.741 59.7053 303.345 59.8985 302.886 60.0389C302.434 60.1735 301.93 60.2408 301.373 60.2408C300.536 60.2408 299.834 60.0916 299.269 59.7931C298.703 59.4947 298.283 59.1084 298.008 58.6344C297.733 58.1604 297.608 57.66 297.634 57.1333H299.269C299.27 57.5781 299.382 57.9321 299.603 58.1955C299.824 58.453 300.102 58.6373 300.437 58.7485C300.771 58.8538 301.106 58.9065 301.44 58.9065C301.885 58.9065 302.26 58.848 302.565 58.731C302.875 58.6139 303.115 58.453 303.283 58.2481C303.451 58.0433 303.542 57.8092 303.555 57.5459ZM310.027 46.5818L309.358 60.0652H307.732L308.401 46.5818H310.027ZM309.224 54.9563L308.549 54.93C308.587 54.2804 308.714 53.6805 308.928 53.1304C309.143 52.5745 309.431 52.0917 309.791 51.682C310.151 51.2724 310.571 50.9563 311.051 50.734C311.537 50.5057 312.067 50.3916 312.641 50.3916C313.11 50.3916 313.529 50.456 313.897 50.5847C314.266 50.7076 314.576 50.9066 314.826 51.1816C315.082 51.4567 315.269 51.8137 315.388 52.2526C315.507 52.6857 315.551 53.2153 315.52 53.8415L315.211 60.0652H313.576L313.886 53.8239C313.911 53.3265 313.857 52.9285 313.726 52.6301C313.594 52.3257 313.391 52.1063 313.117 51.9717C312.842 51.8312 312.5 51.761 312.09 51.761C311.686 51.761 311.312 51.8459 310.97 52.0156C310.633 52.1853 310.338 52.4194 310.083 52.7178C309.833 53.0163 309.632 53.3587 309.478 53.7449C309.33 54.1253 309.246 54.5291 309.224 54.9563ZM323.874 58.4413L324.116 53.5518C324.135 53.1772 324.075 52.8524 323.936 52.5774C323.804 52.2965 323.592 52.08 323.3 51.9278C323.009 51.7756 322.644 51.6996 322.204 51.6996C321.794 51.6996 321.43 51.7698 321.113 51.9102C320.801 52.0507 320.552 52.235 320.365 52.4633C320.183 52.6915 320.086 52.9373 320.073 53.2006H318.447C318.464 52.8612 318.569 52.5247 318.761 52.1911C318.953 51.8576 319.22 51.5562 319.562 51.287C319.909 51.0119 320.319 50.7954 320.789 50.6374C321.266 50.4735 321.792 50.3916 322.366 50.3916C323.057 50.3916 323.661 50.5086 324.177 50.7427C324.698 50.9768 325.097 51.3309 325.372 51.8049C325.653 52.2731 325.777 52.8612 325.741 53.5693L325.522 57.9936C325.506 58.3096 325.516 58.6461 325.551 59.0031C325.592 59.3601 325.662 59.6673 325.76 59.9248L325.753 60.0652H324.057C323.984 59.878 323.932 59.6293 323.901 59.3191C323.869 59.0031 323.86 58.7105 323.874 58.4413ZM324.36 54.3067L324.321 55.4479H322.678C322.215 55.4479 321.8 55.4859 321.433 55.562C321.066 55.6322 320.756 55.7405 320.502 55.8868C320.249 56.0331 320.052 56.2174 319.913 56.4398C319.773 56.6564 319.696 56.9109 319.681 57.2035C319.666 57.502 319.72 57.7741 319.843 58.0199C319.966 58.2657 320.158 58.4618 320.42 58.6081C320.689 58.7485 321.022 58.8187 321.42 58.8187C321.919 58.8187 322.363 58.7134 322.755 58.5027C323.146 58.292 323.46 58.0345 323.698 57.7302C323.942 57.4259 324.079 57.1304 324.111 56.8436L324.767 57.6249C324.714 57.8707 324.589 58.1428 324.392 58.4413C324.196 58.7397 323.939 59.0265 323.62 59.3015C323.308 59.5707 322.939 59.796 322.514 59.9775C322.096 60.153 321.628 60.2408 321.113 60.2408C320.468 60.2408 319.909 60.115 319.435 59.8633C318.967 59.6117 318.609 59.2752 318.36 58.8538C318.118 58.4266 318.01 57.9497 318.036 57.423C318.061 56.9139 318.183 56.4662 318.401 56.0799C318.62 55.6878 318.923 55.363 319.311 55.1055C319.699 54.8422 320.16 54.6432 320.694 54.5086C321.228 54.374 321.82 54.3067 322.471 54.3067H324.36ZM330.54 52.0595L330.143 60.0652H328.517L328.988 50.5672H330.57L330.54 52.0595ZM333.587 50.5145L333.504 52.0244C333.37 51.9951 333.242 51.9775 333.12 51.9717C333.003 51.96 332.868 51.9541 332.716 51.9541C332.341 51.9541 332.007 52.0127 331.714 52.1297C331.421 52.2467 331.17 52.4106 330.96 52.6213C330.751 52.832 330.58 53.0836 330.448 53.3762C330.323 53.663 330.234 53.979 330.182 54.3243L329.711 54.5876C329.74 54.0141 329.822 53.4757 329.959 52.9724C330.101 52.4691 330.301 52.0244 330.561 51.6381C330.821 51.246 331.14 50.9417 331.52 50.7252C331.906 50.5028 332.357 50.3916 332.873 50.3916C332.99 50.3916 333.124 50.4062 333.275 50.4355C333.426 50.4589 333.53 50.4852 333.587 50.5145ZM338.918 60.2408C338.256 60.2408 337.661 60.1296 337.133 59.9072C336.611 59.679 336.167 59.3601 335.801 58.9504C335.44 58.5408 335.171 58.055 334.994 57.4932C334.817 56.9314 334.745 56.3169 334.778 55.6498L334.796 55.2811C334.834 54.5086 334.983 53.821 335.241 53.2182C335.5 52.6096 335.836 52.0946 336.25 51.6732C336.663 51.2519 337.124 50.9329 337.633 50.7164C338.142 50.4999 338.663 50.3916 339.196 50.3916C339.876 50.3916 340.456 50.5086 340.936 50.7427C341.423 50.9768 341.814 51.3045 342.109 51.7259C342.405 52.1414 342.615 52.633 342.739 53.2006C342.864 53.7625 342.909 54.3769 342.876 55.0441L342.84 55.7727H335.739L335.804 54.4472H341.28L341.286 54.3243C341.283 53.9029 341.216 53.4933 341.083 53.0953C340.957 52.6974 340.738 52.3696 340.429 52.1121C340.119 51.8546 339.686 51.7259 339.13 51.7259C338.761 51.7259 338.417 51.8049 338.098 51.9629C337.78 52.1151 337.502 52.3433 337.265 52.6476C337.027 52.9519 336.836 53.3235 336.691 53.7625C336.546 54.2014 336.459 54.7076 336.431 55.2811L336.413 55.6498C336.39 56.1004 336.431 56.5247 336.534 56.9226C336.643 57.3147 336.811 57.66 337.036 57.9585C337.268 58.2569 337.552 58.491 337.889 58.6607C338.232 58.8304 338.627 58.9153 339.072 58.9153C339.646 58.9153 340.138 58.7983 340.548 58.5642C340.958 58.3301 341.323 58.017 341.641 57.6249L342.586 58.4062C342.366 58.7163 342.091 59.0119 341.76 59.2928C341.43 59.5737 341.029 59.8019 340.557 59.9775C340.092 60.153 339.545 60.2408 338.918 60.2408ZM345.135 59.205C345.148 58.9299 345.245 58.6988 345.424 58.5115C345.609 58.3184 345.866 58.2218 346.194 58.2218C346.522 58.2218 346.767 58.3184 346.927 58.5115C347.093 58.6988 347.17 58.9299 347.156 59.205C347.143 59.4742 347.044 59.7024 346.858 59.8897C346.679 60.077 346.426 60.1706 346.097 60.1706C345.769 60.1706 345.522 60.077 345.356 59.8897C345.195 59.7024 345.121 59.4742 345.135 59.205ZM350.421 59.205C350.434 58.9299 350.531 58.6988 350.71 58.5115C350.895 58.3184 351.152 58.2218 351.48 58.2218C351.808 58.2218 352.053 58.3184 352.213 58.5115C352.379 58.6988 352.456 58.9299 352.442 59.205C352.429 59.4742 352.33 59.7024 352.145 59.8897C351.965 60.077 351.712 60.1706 351.384 60.1706C351.055 60.1706 350.808 60.077 350.642 59.8897C350.481 59.7024 350.407 59.4742 350.421 59.205ZM355.707 59.205C355.72 58.9299 355.817 58.6988 355.996 58.5115C356.181 58.3184 356.438 58.2218 356.766 58.2218C357.094 58.2218 357.339 58.3184 357.499 58.5115C357.666 58.6988 357.742 58.9299 357.728 59.205C357.715 59.4742 357.616 59.7024 357.431 59.8897C357.251 60.077 356.998 60.1706 356.67 60.1706C356.342 60.1706 356.094 60.077 355.928 59.8897C355.767 59.7024 355.693 59.4742 355.707 59.205Z" fill="#8A8A8A"/>
<path d="M53.2171 61.8209H359.598L359.554 62.6987H53.1736L53.2171 61.8209Z" fill="#8A8A8A"/>
<path d="M23.188 11.9853C23.5164 5.36599 29.1552 0 35.7826 0H537.377C544.005 0 549.111 5.36598 548.783 11.9853L548.092 25.9141H22.497L23.188 11.9853Z" fill="#2C2D38"/>
<line x1="1.5" y1="-1.5" x2="47.7165" y2="-1.5" transform="matrix(1 0 -0.0495471 0.998772 260.819 13.8823)" stroke="white" stroke-width="3" stroke-linecap="round"/>
<mask id="path-5-outside-1_142_107" maskUnits="userSpaceOnUse" x="-0.000402793" y="440.466" width="527.932" height="38.9521" fill="black">
<rect fill="white" x="-0.000402793" y="440.466" width="527.932" height="38.9521"/>
<path d="M1.88239 441.465H527.477L526.189 467.425C525.861 474.044 520.222 479.41 513.595 479.41H12C5.37258 479.41 0.266175 474.044 0.594544 467.425L1.88239 441.465Z"/>
</mask>
<path d="M1.88239 441.465H527.477L526.189 467.425C525.861 474.044 520.222 479.41 513.595 479.41H12C5.37258 479.41 0.266175 474.044 0.594544 467.425L1.88239 441.465Z" fill="#696C85"/>
<path d="M1.93193 440.466H527.527L527.427 442.464H1.83284L1.93193 440.466ZM1.83284 442.464M525.595 479.41H-2.04321e-05H525.595M525.595 479.41M-2.04321e-05 479.41L1.88239 441.465L-2.04321e-05 479.41M-2.04321e-05 479.41M527.477 441.465L525.595 479.41L527.477 441.465" fill="#B3B3B3" mask="url(#path-5-outside-1_142_107)"/>
<path d="M58.74 467.043C58.2308 467.525 57.4477 467.525 56.9896 467.043L50.4874 460.656C50.1234 460.298 49.7029 459.622 49.6959 459.101C49.6786 457.692 49.8742 454.993 49.9879 453.562C50.0294 453.04 50.4895 452.603 51.0133 452.592C52.8456 452.549 56.7254 452.503 57.0679 452.864L64.2397 459.649C64.6978 460.131 64.2005 461.35 63.6912 461.834L58.74 467.043ZM53.379 454.664C52.9896 454.257 52.3282 454.257 51.8992 454.664C51.4709 455.073 51.4382 455.733 51.8259 456.14C52.2154 456.548 52.8767 456.548 53.3057 456.14C53.734 455.733 53.7667 455.072 53.379 454.664Z" fill="#E3E3E3"/>
<path fill-rule="evenodd" clip-rule="evenodd" d="M86.249 453.547C86.6408 452.919 87.279 452.563 88.0041 452.563C88.7292 452.563 89.332 452.919 89.6609 453.547L95.4527 464.502C95.7825 465.126 95.747 465.841 95.3551 466.47C94.9598 467.094 94.3215 467.453 93.5964 467.453H80.9344C80.2093 467.453 79.6067 467.093 79.2733 466.47C78.9437 465.842 78.9792 465.126 79.3709 464.502L86.249 453.547ZM87.52 454.323L86.4241 456.066C86.417 456.051 86.4019 456.035 86.3904 456.018C86.285 455.89 86.1405 455.806 85.9863 455.774L87.0688 454.05C87.0691 454.046 87.0736 454.042 87.0776 454.034C87.1778 453.874 87.3036 453.754 87.452 453.671C87.6048 453.587 87.7715 453.543 87.9554 453.543C88.1394 453.543 88.3053 453.587 88.4455 453.671C88.5856 453.756 88.6994 453.875 88.7836 454.039L89.7027 455.771C89.6377 455.787 89.5768 455.807 89.5154 455.839C89.4008 455.895 89.3047 455.971 89.2321 456.066L88.3021 454.307C88.2618 454.231 88.2127 454.175 88.1503 454.139C88.0922 454.103 88.0165 454.087 87.9285 454.087C87.8361 454.087 87.7632 454.103 87.6979 454.139C87.6362 454.175 87.5815 454.231 87.5294 454.307C87.5292 454.31 87.5245 454.318 87.52 454.323ZM81.8111 463.422L80.655 465.261C80.607 465.341 80.5796 465.413 80.576 465.485H80.5804C80.5768 465.557 80.5934 465.629 80.6337 465.705C80.6378 465.709 80.6374 465.717 80.6408 465.721C80.6815 465.789 80.7272 465.841 80.7853 465.877C80.8434 465.913 80.9191 465.928 81.0107 465.928H83.0613C82.9959 466.112 83.0022 466.305 83.0662 466.468L80.9833 466.47C80.795 466.47 80.6333 466.429 80.4888 466.346C80.3564 466.266 80.2462 466.145 80.1621 465.994C80.158 465.99 80.1547 465.982 80.1506 465.978C80.0662 465.818 80.0267 465.654 80.035 465.486C80.0434 465.318 80.0999 465.154 80.1996 464.99L80.1994 464.995L81.343 463.175C81.381 463.223 81.4308 463.267 81.4845 463.303C81.5853 463.366 81.6958 463.406 81.8111 463.422ZM91.6215 465.929H93.672C93.7644 465.929 93.8409 465.913 93.9026 465.877C93.9642 465.841 94.0233 465.785 94.0711 465.709C94.1188 465.634 94.1428 465.557 94.1464 465.485C94.15 465.413 94.1335 465.338 94.0933 465.261L93.1197 463.422C93.1401 463.417 93.1603 463.417 93.1763 463.414C93.3506 463.378 93.4983 463.293 93.6125 463.174L94.5757 464.99C94.6599 465.154 94.6995 465.317 94.6911 465.485C94.683 465.65 94.6265 465.813 94.5267 465.978C94.4228 466.138 94.3005 466.261 94.1521 466.346C94 466.43 93.8335 466.47 93.6452 466.47H91.5631C91.6034 466.385 91.6317 466.294 91.641 466.194C91.6492 466.102 91.6418 466.014 91.6215 465.929ZM81.9412 462.646C82.1474 461.806 82.702 461.039 83.5257 460.578C83.9503 460.338 84.3968 460.21 84.843 460.174C84.6709 459.774 84.5887 459.322 84.6121 458.85C84.6579 457.926 85.104 457.094 85.7805 456.531C85.5652 456.915 85.4312 457.362 85.4076 457.838C85.3355 459.29 86.3225 460.47 87.6118 460.47C88.9011 460.47 90.0051 459.291 90.0771 457.838C90.1008 457.362 90.0111 456.915 89.8339 456.531C90.4509 457.095 90.818 457.926 90.7722 458.85C90.7488 459.322 90.6225 459.774 90.41 460.174C90.849 460.21 91.2871 460.338 91.6872 460.578C92.4652 461.038 92.9437 461.806 93.0665 462.646C92.8484 462.286 92.5353 461.966 92.1352 461.726C90.91 461.002 89.3525 461.318 88.6479 462.434C87.9476 463.55 88.3743 465.042 89.5957 465.769C89.9967 466.005 90.4348 466.133 90.8659 466.153C90.0391 466.429 89.1215 466.37 88.3392 465.909C87.9427 465.67 87.6222 465.353 87.3879 464.986C87.1171 465.354 86.7653 465.67 86.3407 465.91C85.517 466.37 84.5927 466.43 83.7939 466.154C84.2271 466.134 84.6786 466.006 85.1023 465.77C86.3959 465.042 86.9663 463.55 86.3766 462.434C85.787 461.318 84.2608 461.003 82.9638 461.727C82.54 461.966 82.1957 462.286 81.9412 462.646ZM87.5709 461.294C87.8393 461.294 88.045 461.51 88.0317 461.778C88.0184 462.046 87.7912 462.262 87.5228 462.262C87.2544 462.262 87.0487 462.046 87.062 461.778C87.0753 461.51 87.3025 461.294 87.5709 461.294ZM87.7129 458.43C88.2014 458.43 88.6565 458.534 89.068 458.718C88.9839 458.886 88.8759 459.043 88.7448 459.182C88.4233 459.046 88.0627 458.971 87.6861 458.971C87.3059 458.971 86.9414 459.046 86.6064 459.182C86.4892 459.043 86.3967 458.886 86.329 458.723C86.759 458.535 87.2245 458.43 87.7129 458.43ZM90.8656 462.126C90.7466 462.91 90.3551 463.618 89.8001 464.146C89.6698 464.27 89.5277 464.386 89.3783 464.49C89.2774 464.342 89.2018 464.178 89.1499 464.002C89.2497 463.926 89.346 463.846 89.4339 463.762C89.8791 463.338 90.1998 462.778 90.3111 462.15C90.4975 462.114 90.6819 462.106 90.8656 462.126ZM85.4462 464.489C85.3071 464.386 85.1765 464.27 85.0585 464.146C84.5559 463.618 84.2346 462.91 84.1936 462.122C84.3784 462.106 84.5627 462.114 84.7405 462.15C84.7938 462.777 85.0582 463.337 85.4614 463.762C85.5416 463.846 85.6293 463.926 85.7179 464.002C85.6536 464.177 85.5574 464.342 85.4462 464.489Z" fill="#E3E3E3"/>
<path d="M493.205 464.033L491.809 468.957C491.626 469.623 491.833 470.312 492.365 470.725C492.664 470.966 493.026 471.092 493.406 471.092C493.683 471.092 493.962 471.023 494.234 470.885L510.585 462.518C511.201 462.196 511.611 461.577 511.645 460.9C511.678 460.223 511.329 459.603 510.746 459.281L495.227 450.914C494.632 450.593 493.903 450.651 493.341 451.075C492.768 451.488 492.492 452.177 492.609 452.843L493.517 457.766C493.707 458.799 494.403 459.638 495.362 460.016L497.435 460.946L495.275 461.784C494.277 462.162 493.498 463 493.205 464.033Z" fill="#B8A6F2"/>
<path d="M32.3547 453.381H18.945C17.4329 453.381 16.1383 454.613 16.0634 456.124L15.6001 465.466C15.5251 466.977 16.6976 468.209 18.2096 468.209H31.6193C33.1314 468.209 34.4261 466.977 34.501 465.466L34.9643 456.124C35.0392 454.613 33.8668 453.381 32.3547 453.381ZM18.8701 454.892H32.2798C32.9562 454.892 33.4857 455.448 33.4522 456.124L33.0628 463.975L29.3482 459.443C28.7291 458.688 27.5354 458.688 26.8414 459.443L23.245 463.359L22.0785 462.008C21.4953 461.332 20.4209 461.332 19.7706 462.008L17.1486 464.731L17.5754 456.124C17.609 455.448 18.1936 454.892 18.8701 454.892Z" fill="#E3E3E3"/>
<path d="M21.0413 459.661C21.8654 459.661 22.5665 458.994 22.6073 458.171C22.6481 457.347 22.0132 456.68 21.1891 456.68C20.365 456.68 19.6638 457.347 19.623 458.171C19.5822 458.994 20.2172 459.661 21.0413 459.661Z" fill="#E3E3E3"/>
<path fill-rule="evenodd" clip-rule="evenodd" d="M136.636 466.169C136.615 466.579 136.267 466.911 135.857 466.911H123.983C123.573 466.911 123.257 466.579 123.278 466.169C123.298 465.76 123.647 465.428 124.057 465.428H135.93C136.34 465.428 136.656 465.76 136.636 466.169Z" fill="#E3E3E3"/>
<path fill-rule="evenodd" clip-rule="evenodd" d="M137.077 457.272C137.056 457.682 136.708 458.014 136.298 458.014H124.424C124.014 458.014 123.699 457.682 123.719 457.272C123.739 456.863 124.088 456.531 124.498 456.531H136.371C136.781 456.531 137.097 456.863 137.077 457.272Z" fill="#E3E3E3"/>
<path fill-rule="evenodd" clip-rule="evenodd" d="M118.972 463.204C117.333 463.204 115.938 464.532 115.857 466.17C115.775 467.808 117.039 469.135 118.678 469.135C120.317 469.135 121.712 467.808 121.794 466.17C121.875 464.532 120.612 463.204 118.972 463.204Z" fill="#E3E3E3"/>
<path fill-rule="evenodd" clip-rule="evenodd" d="M119.414 454.307C117.774 454.307 116.379 455.635 116.298 457.273C116.217 458.911 117.48 460.238 119.119 460.238C120.759 460.238 122.154 458.911 122.235 457.273C122.316 455.635 121.053 454.307 119.414 454.307Z" fill="#E3E3E3"/>
<path fill-rule="evenodd" clip-rule="evenodd" d="M183.387 453.131C183.403 452.817 183.67 452.563 183.984 452.563H189.673C189.987 452.563 190.229 452.817 190.214 453.131C190.198 453.445 189.931 453.699 189.617 453.699H187.076L183.103 466.199H185.583C185.898 466.199 186.14 466.453 186.124 466.767C186.108 467.081 185.841 467.335 185.527 467.335H179.838C179.524 467.335 179.282 467.081 179.298 466.767C179.313 466.453 179.581 466.199 179.895 466.199H181.925L185.899 453.699H183.928C183.614 453.699 183.372 453.445 183.387 453.131Z" fill="#E3E3E3"/>
<path fill-rule="evenodd" clip-rule="evenodd" d="M215.211 453.935C215.241 453.34 216.145 453.34 216.116 453.935L215.791 460.486C215.66 463.13 213.388 465.292 210.741 465.292C208.094 465.292 206.037 463.13 206.168 460.486L206.492 453.935C206.522 453.34 207.427 453.34 207.397 453.935L207.072 460.486C206.902 463.914 211.001 465.717 213.602 463.242C214.345 462.534 214.833 461.559 214.887 460.486L215.211 453.935ZM204.389 467.937C203.793 467.937 203.838 467.033 204.434 467.033H216.874C217.469 467.033 217.425 467.937 216.829 467.937H204.389Z" fill="#E3E3E3"/>
<path fill-rule="evenodd" clip-rule="evenodd" d="M154.467 452.563C153.185 452.563 152.094 453.601 152.03 454.882L151.771 460.101L151.512 465.32C151.449 466.601 152.437 467.639 153.72 467.639H159.816C162.22 467.639 164.267 465.692 164.386 463.29C164.481 461.378 163.325 459.753 161.635 459.171C162.069 458.513 162.339 457.739 162.38 456.912C162.499 454.51 160.646 452.563 158.241 452.563H154.467ZM157.925 458.941C159.047 458.941 160.002 458.033 160.057 456.912C160.113 455.791 159.248 454.882 158.126 454.882H154.352L154.151 458.941H157.925ZM154.036 461.261L153.835 465.32H159.931C161.053 465.32 162.008 464.411 162.063 463.29C162.119 462.17 161.254 461.261 160.132 461.261H157.81H154.036Z" fill="#E3E3E3"/>
<line x1="0.25" y1="-0.25" x2="22.916" y2="-0.25" transform="matrix(0.0495471 -0.998772 1 0 105.301 472.007)" stroke="white" stroke-width="0.5" stroke-linecap="round"/>
</svg>
